<?xml version="1.0" encoding="utf-8"?>
<!-- Generator: Adobe Illustrator 15.0.0, SVG Export Plug-In . SVG Version: 6.00 Build 0)  -->
<!DOCTYPE svg PUBLIC "-//W3C//DTD SVG 1.1//EN" "http://www.w3.org/Graphics/SVG/1.1/DTD/svg11.dtd">
<svg version="1.1" id="Layer_1" xmlns="http://www.w3.org/2000/svg" xmlns:xlink="http://www.w3.org/1999/xlink" x="0px" y="0px"
	 width="612px" height="792px" viewBox="0 0 612 792" enable-background="new 0 0 612 792" xml:space="preserve">
<g>
	<path fill-rule="evenodd" clip-rule="evenodd" d="M277.855,196.459c-14.928,1.55-12.294-14.464-25.35-14.787
		C259.147,171.916,288.074,182.574,277.855,196.459z"/>
	<path fill-rule="evenodd" clip-rule="evenodd" d="M362.354,179.56c-10.798,3.287-11.307,16.86-25.352,16.899
		C327.921,182.165,352.094,174.512,362.354,179.56z"/>
	<path fill-rule="evenodd" clip-rule="evenodd" d="M214.481,0c7.746,0,15.491,0,23.237,0c0,0.705,0,1.408,0,2.113
		c39.293,0.139,16.868,61.997,52.811,65.486c-4.085-19.384-13.122-14.276-14.787-29.575c-4.736-43.527,63.487-46.306,61.26-2.111
		c-0.757,15.048-13.642,15.357-16.899,31.687C356.364,63.722,335.322,2.542,372.916,0c8.45,0,16.899,0,25.351,0
		c40.751,11.959,109.353,44.849,160.547,63.374c17.23,6.235,49.815,12.677,52.812,23.238c6.727,23.724-21.392,20.712-35.912,29.574
		c-12.573,7.674-19.185,26.95-42.248,21.124c-3.019,16.672-24.617,23.742-42.25,19.013c-6.771,24.371-42.02,8.751-54.925,19.013
		c11.989,35.413-10.61,69.856-48.587,73.936c26.76,28.785,5.622,76.424-27.462,82.387c27.726,13.994,17.02,64.177-10.562,69.712
		c20.806,19.332,10.719,56.278-8.451,69.71c9.725,2.431,6.477,11.981,6.338,14.789c20.932,0.25,5.97,41.272-8.45,44.361
		c20.512,14.498,7.432,50.414-8.449,59.148c23.618,17.896,5.356,57.138-12.674,61.262c1.988,13.255-1.546,20.988-10.563,23.237
		c-0.704,0-1.409,0-2.112,0c-7.706-3.56-9.656-12.876-8.45-25.349c-20.171,1.743-36.585-43.896-12.675-57.038
		c-12.589-10.81-30.299-41.419-10.563-59.147c-19.216-14.449-21.635-49.553,0-63.374c-21.953-10.054-27.993-50.211-8.449-67.6
		c-29.419-6.15-35.471-53.567-12.675-71.825c-33.896-3.575-50.987-54.341-25.35-80.273c-32.521-4.729-65.621-33.28-46.474-69.711
		c-13.851-16.929-39.236-1.063-54.925-14.788c-0.998-0.873-4.554-7.809-6.337-8.45c-7.323-2.628-18.275,2.561-25.35,0
		c-10.063-3.642-13.977-14.913-21.124-19.013c-20.212-0.208-30.322-10.518-40.137-21.124c-17.78-4.05-34.432-9.227-33.8-31.687
		C71.621,57.121,139.417,24.926,214.481,0z M290.529,92.949c-1.857-21.332-18.347-11.644-29.574-27.462
		c-11.5-16.205-4.326-58.211-35.912-48.586C254.837,34.283,240.244,96.057,290.529,92.949z M322.216,23.237
		c-8.384-14.73-40.376-10.707-33.798,19.013C304.646,62.695,333.593,43.222,322.216,23.237z M349.68,67.599
		c-10.941,14.144-28.757,3.334-29.576,25.35c50.264,2.38,37.31-58.457,65.486-78.161C351.372,10.91,362.327,51.249,349.68,67.599z
		 M104.633,63.374c39.822,13.221,75.353-25.554,109.848-38.024C168.38,20.158,135.821,46.63,104.633,63.374z M396.153,27.462
		c33.657,6.348,84.167,60.441,111.961,31.687C470.44,51.614,440.354,14.438,396.153,27.462z M138.432,82.387
		c36.693,9.847,67.172-20.974,92.949-35.913c-2.944-2.69-0.919-10.347-6.338-10.561C198.554,53.785,163.509,63.102,138.432,82.387z
		 M379.254,50.7c31.623,7.718,55.108,44.041,92.948,31.687c-26.413-18.652-59.545-30.589-88.723-46.474
		C381.138,39.908,380.783,45.893,379.254,50.7z M307.43,223.922c2.166-48.592,6.193-117.49-2.112-160.548c-1.409,0-2.817,0-4.225,0
		C308.18,111.914,296.65,179.073,307.43,223.922z M15.909,90.836c22.484,25.229,63.308-5.459,86.61-12.676
		c-5.819-3.333-11.122-7.186-14.787-12.674C65.342,75.487,41.102,83.639,15.909,90.836z M174.343,97.173
		c22.847,16.467,50.167-7.865,65.488-19.013c-4.737-2.303-3.713-10.369-8.45-12.674C213.973,77.654,192.354,85.609,174.343,97.173z
		 M370.803,80.274c17.676,7.001,45.509,36.759,65.487,14.787c-21.71-7.865-38.407-20.742-59.149-29.575
		C376.59,71.978,372.559,74.987,370.803,80.274z M520.788,65.486c-0.019,9.136-9.964,8.345-12.674,14.788
		c27.115,3.923,64.513,36.717,88.725,10.563C569.72,84.155,545.28,74.794,520.788,65.486z M51.821,116.186
		c30.371,17.743,64.971-9.599,86.611-21.125C112.446,78.262,77.117,106.218,51.821,116.186z M472.202,97.173
		c24.187,8.144,60.102,40.222,88.724,16.9C531.322,109.447,496.594,74.401,472.202,97.173z M216.593,114.074
		c20.707,5.498,35.181-6.698,48.587-14.788C248.464,83.922,229.769,102.33,216.593,114.074z M347.566,101.399
		c14.146,6.135,26.692,18.361,46.475,12.674C382.734,102.763,359.809,81.6,347.566,101.399z M159.556,101.399
		c-19.708,14.795-49.116,19.89-67.599,35.911c31.933,17.915,62.429-13.071,86.612-23.236
		C169.57,112.509,166.001,105.516,159.556,101.399z M448.966,101.399c-2.542,8.02-12.356,8.768-16.899,14.787
		c26.465,6.757,58.784,42.681,88.722,19.013C496.697,124.083,471.964,113.607,448.966,101.399z M256.73,122.523
		c17.652,1.458,26.224-6.167,33.799-14.787C276.009,104.781,265.453,113.84,256.73,122.523z M320.104,109.849
		c9.889,5.602,16.08,14.903,33.8,12.674C345.995,114.424,331.924,101.586,320.104,109.849z M136.319,154.21
		c34.18,12.748,58.166-18.555,82.386-29.574C185.47,115.928,161.59,142.082,136.319,154.21z M391.928,126.749
		c26.645,7.371,52.004,44.317,84.499,25.35C446.676,145.965,423.847,111.091,391.928,126.749z M180.682,164.772
		c11.346,2.205,31.469-4.117,46.474-10.563c11.893-5.107,21.1-16.652,29.575-21.125
		C227.253,125.994,203.746,152.349,180.682,164.772z M353.903,135.199c19.653,12.292,54.898,30.659,76.05,27.461
		C404.885,154.371,380.993,121.641,353.903,135.199z M250.393,154.21c5.937,2.513,12.146,4.754,19.013,6.338
		c7.415-6.668,17.359-10.808,23.237-19.012C272.158,133.871,263.425,144.335,250.393,154.21z M320.104,141.536
		c4.271,10.517,16.341,13.235,23.238,21.124c4.461-4.693,13.781-4.526,19.013-8.45C347.356,147.642,340.325,131.849,320.104,141.536
		z M284.192,171.11c5.764-1.538,4.252,4.198,8.45,4.226c0-4.226,0-8.45,0-12.675C287.267,162.918,284.45,165.735,284.192,171.11z
		 M322.216,177.447c0.652-4.98,7.337-3.929,6.339-10.561c-5.765,1.538-4.252-4.198-8.451-4.226
		C321.362,167.037,317.493,176.538,322.216,177.447z M189.131,213.359c8.654,22.199,60.991,35.943,82.387,14.787
		c-23.364-7.618-57.472-4.493-57.037-35.912c25.152-15.339,43.801,17.847,71.824,6.337
		C277.924,142.115,168.616,160.736,189.131,213.359z M263.068,285.183c-1.141-32.254,55.357-29.489,86.611-35.912
		c31.749-6.523,75.567-19.021,78.161-44.362c5.209-50.898-98.191-53.411-99.286-6.337c21.977,14.878,63.7-30.261,71.824-2.113
		c6.588,22.83-49.822,30.684-78.163,35.913c-32.105,5.922-75.378,12.252-88.723,27.461c-23.828,27.159,2.016,54.882,29.576,61.262
		c9.267-3.406,17.312-8.037,25.349-12.674C281.354,305.992,263.658,301.875,263.068,285.183z M292.642,221.809
		c-1.256-4.375,2.611-13.876-2.113-14.787c-19.471,17.618-44.706-8.894-63.374-4.226
		C246.822,211.297,269.324,216.961,292.642,221.809z M320.104,207.022c0,4.929,0,9.858,0,14.787
		c22.879-5.991,50.045-7.697,65.486-21.124C363.656,204.458,341.994,221.277,320.104,207.022z M372.916,312.646
		c27.319-19.495,21.987-72.242-33.8-50.7c49.036,53.316-59.458,46.65-84.499,82.387c-16.13,23.019,1.107,40.478,21.125,50.698
		c3.854-6.004,13.554-6.162,16.899-12.674C231.521,341.537,340.057,336.096,372.916,312.646z M309.542,304.196
		c0-11.971,0-23.942,0-35.912c-2.112,0-4.225,0-6.337,0C305.42,280.151,297.641,302.014,309.542,304.196z M322.216,299.971
		c7.713-4.964,18.928-6.422,21.126-16.9c-4.646-7.325-13.519-10.424-23.238-12.675C321.468,279.596,317.35,294.277,322.216,299.971z
		 M288.417,272.509c-3.672,5.482-14.426,3.882-12.675,14.787c2.987,6.167,11.604,6.703,16.899,10.563
		C290.431,290.211,297.434,273.351,288.417,272.509z M282.08,433.057c2.475-30.55,84.286-32.89,84.5-69.711
		c0.091-15.854-16.771-37.533-40.138-19.013c52.397,37.566-53.145,45.359-61.261,78.16c-3.184,12.866-0.798,37.02,27.461,38.024
		C299.531,445.426,280.727,449.755,282.08,433.057z M309.542,378.132c-1.362-9.199,2.755-23.88-2.112-29.574
		C301.184,351.597,299.6,378.097,309.542,378.132z M322.216,371.794c2.124-4.213,9.343-3.332,8.451-10.562
		c-1.539-4.797-6.356-6.317-10.563-8.449C321.414,358.515,317.424,369.547,322.216,371.794z M294.754,369.683
		c-1.256-4.377,2.611-13.879-2.112-14.788C286.414,360.098,284.9,366.875,294.754,369.683z M349.68,422.493
		c-3.949-13.087-17.498-14.535-29.576-4.223c40.184,36.476-48.165,47.95-50.698,78.159c-0.482,5.745,0.987,27.29,21.124,21.126
		c5.131-6.674-8.905-8.299-6.337-19.013C292.268,471.313,362.442,464.809,349.68,422.493z M309.542,447.844
		c-1.348-7.808,2.735-21.042-2.112-25.351C301.032,427.707,301.083,448.496,309.542,447.844z M345.454,506.992
		c2.453-9.36-5.166-43.319-25.351-21.123c8.568,1.289,8.301,11.416,10.563,19.01c-21.692,14.453-84.5,47.04-35.913,73.938
		C257.437,538.263,338.938,531.856,345.454,506.992z M307.43,506.992c2.919-1.03,5.127-19.043-2.112-16.899
		C303.468,492.193,299.438,508.385,307.43,506.992z M339.116,561.917c3.026-20.033-10.854-35.277-21.123-19.013
		c31.441,35.845-41.96,43.208-33.801,76.049C293.725,591.166,324.564,584.686,339.116,561.917z M309.542,570.366
		c-1.337-7.112,2.722-19.622-2.112-23.236C304.743,551.357,302.49,569.272,309.542,570.366z M332.78,614.729
		c-3.159-6.763-7.302-23.596-16.9-16.899C324.34,599.292,325.492,619.112,332.78,614.729z M307.43,665.429
		c2.079-15.084,6.279-49.696-2.112-61.264C306.713,623.894,302.516,649.216,307.43,665.429z M296.868,637.966
		c-1.31-5.732,2.681-16.765-2.113-19.013C293.354,623.747,289.295,636.667,296.868,637.966z M320.104,637.966
		c3.614-4.234,3.076-17.125-2.11-19.013C319.301,624.686,315.311,635.718,320.104,637.966z"/>
</g>
</svg>
